<svg viewBox="0 0 960 410" xmlns="http://www.w3.org/2000/svg" font-family="'Segoe UI', 'Malgun Gothic', Arial, sans-serif">
  <text x="14" y="22" font-size="15" font-weight="700" fill="#151B26">Asana List 뷰 목업 — Pixel Dungeon (섹션·태스크·서브태스크·마일스톤)</text>
  <rect x="0" y="34" width="960" height="368" rx="6" fill="#FFFFFF" stroke="#E8E8E8"/>
  <!-- top bar / tabs -->
  <rect x="0" y="34" width="960" height="30" fill="#FFFFFF"/>
  <text x="14" y="54" font-size="13" font-weight="700" fill="#151B26">▦ Pixel Dungeon</text>
  <g font-size="11">
    <text x="220" y="54" fill="#F06A6A" font-weight="700">List</text><rect x="218" y="60" width="28" height="2" fill="#F06A6A"/>
    <text x="270" y="54" fill="#6F7782">Board</text>
    <text x="330" y="54" fill="#A0A0A0">Timeline 🔒</text>
    <text x="420" y="54" fill="#6F7782">Calendar</text>
    <text x="495" y="54" fill="#6F7782">Dashboard</text>
  </g>
  <rect x="330" y="42" width="74" height="15" rx="7" fill="none"/>
  <text x="690" y="54" font-size="9" fill="#A0A0A0">🔒 = Starter(유료) 전용 뷰</text>

  <!-- column header -->
  <rect x="0" y="64" width="960" height="22" fill="#F9F8F8"/>
  <line x1="0" y1="86" x2="960" y2="86" stroke="#E8E8E8"/>
  <g font-size="10" fill="#6F7782">
    <text x="24" y="79">작업 이름</text>
    <text x="566" y="79">담당</text>
    <text x="636" y="79">마감일</text>
    <text x="716" y="79">우선순위</text>
  </g>

  <!-- Section E2 -->
  <rect x="0" y="86" width="960" height="24" fill="#F4F4F6"/>
  <circle cx="20" cy="98" r="4" fill="#4C9AFF"/><text x="32" y="102" font-size="11" font-weight="700" fill="#151B26">▾ E2 코어 플레이</text>
  <!-- tasks -->
  <g font-size="11" fill="#151B26">
    <circle cx="22" cy="122" r="6" fill="none" stroke="#B6B6B6"/><text x="36" y="126">US-01 플레이어 이동(턴제)</text>
    <circle cx="580" cy="122" r="8" fill="#57D9A3"/><text x="580" y="125" font-size="7" fill="#fff" text-anchor="middle">DEV</text>
    <text x="636" y="126" font-size="10" fill="#6F7782">7/08</text>
    <rect x="712" y="116" width="52" height="14" rx="7" fill="#FFE6E6"/><text x="738" y="126" font-size="9" fill="#C8553D" text-anchor="middle">High</text>

    <circle cx="22" cy="146" r="6" fill="none" stroke="#B6B6B6"/><text x="36" y="150">US-02 공격 입력</text>
    <circle cx="580" cy="146" r="8" fill="#57D9A3"/><text x="580" y="149" font-size="7" fill="#fff" text-anchor="middle">DEV</text>
    <text x="636" y="150" font-size="10" fill="#6F7782">7/09</text>
    <rect x="712" y="140" width="52" height="14" rx="7" fill="#FFE6E6"/><text x="738" y="150" font-size="9" fill="#C8553D" text-anchor="middle">High</text>

    <circle cx="22" cy="170" r="6" fill="none" stroke="#B6B6B6"/><text x="36" y="174">US-04 턴제 전투(HP)</text>
    <circle cx="580" cy="170" r="8" fill="#57D9A3"/><text x="580" y="173" font-size="7" fill="#fff" text-anchor="middle">DEV</text>
    <text x="636" y="174" font-size="10" fill="#6F7782">7/11</text>
    <rect x="712" y="164" width="52" height="14" rx="7" fill="#FFE6E6"/><text x="738" y="174" font-size="9" fill="#C8553D" text-anchor="middle">High</text>
  </g>

  <!-- Section E3 -->
  <rect x="0" y="184" width="960" height="24" fill="#F4F4F6"/>
  <circle cx="20" cy="196" r="4" fill="#57D9A3"/><text x="32" y="200" font-size="11" font-weight="700" fill="#151B26">▾ E3 던전·콘텐츠</text>
  <g font-size="11" fill="#151B26">
    <circle cx="22" cy="220" r="6" fill="none" stroke="#B6B6B6"/><text x="36" y="224">US-05 던전 생성</text>
    <text x="200" y="224" font-size="9" fill="#6F7782">▸ 서브태스크 3</text>
    <circle cx="580" cy="220" r="8" fill="#57D9A3"/><text x="580" y="223" font-size="7" fill="#fff" text-anchor="middle">DEV</text>
    <text x="636" y="224" font-size="10" fill="#6F7782">7/24</text>
    <rect x="712" y="214" width="52" height="14" rx="7" fill="#FFE6E6"/><text x="738" y="224" font-size="9" fill="#C8553D" text-anchor="middle">High</text>
    <!-- subtasks -->
    <text x="60" y="247" font-size="10" fill="#6F7782">⤷ 방 생성</text>
    <text x="60" y="269" font-size="10" fill="#6F7782">⤷ 복도 연결</text>
    <text x="60" y="291" font-size="10" fill="#6F7782">⤷ 계단 배치</text>

    <circle cx="22" cy="312" r="6" fill="none" stroke="#B6B6B6"/><text x="36" y="316">US-06 적 추적 AI</text>
    <circle cx="580" cy="312" r="8" fill="#57D9A3"/><text x="580" y="315" font-size="7" fill="#fff" text-anchor="middle">DEV</text>
    <text x="636" y="316" font-size="10" fill="#6F7782">7/26</text>
    <rect x="712" y="306" width="52" height="14" rx="7" fill="#FFF4E6"/><text x="738" y="316" font-size="9" fill="#B07B00" text-anchor="middle">Med</text>
  </g>

  <!-- Section E5 -->
  <rect x="0" y="326" width="960" height="24" fill="#F4F4F6"/>
  <circle cx="20" cy="338" r="4" fill="#998DD9"/><text x="32" y="342" font-size="11" font-weight="700" fill="#151B26">▾ E5 UI/UX</text>
  <g font-size="11" fill="#151B26">
    <circle cx="22" cy="362" r="6" fill="none" stroke="#B6B6B6"/><text x="36" y="366">US-07 게임오버 화면</text>
    <circle cx="580" cy="362" r="8" fill="#998DD9"/><text x="580" y="365" font-size="7" fill="#fff" text-anchor="middle">ART</text>
    <text x="636" y="366" font-size="10" fill="#6F7782">8/05</text>
    <rect x="712" y="356" width="52" height="14" rx="7" fill="#FFF4E6"/><text x="738" y="366" font-size="9" fill="#B07B00" text-anchor="middle">Med</text>
  </g>

  <!-- Milestone -->
  <rect x="36" y="380" width="12" height="12" transform="rotate(45 42 386)" fill="#F06A6A"/>
  <text x="60" y="390" font-size="11" font-weight="700" fill="#F06A6A">M1 프로토타입 (마일스톤)</text>
  <text x="636" y="390" font-size="10" fill="#F06A6A">7/17</text>
</svg>
