<svg viewBox="0 0 968 360" xmlns="http://www.w3.org/2000/svg" font-family="'Segoe UI', 'Malgun Gothic', Arial, sans-serif">
  <text x="14" y="22" font-size="15" font-weight="700" fill="#2A2A2A">Redmine 내장 Gantt 목업 — 상위/하위 이슈(WBS) · 진행률 · 버전(마일스톤)</text>
  <rect x="0" y="34" width="968" height="312" rx="4" fill="#FFFFFF" stroke="#D0D0D0"/>
  <!-- left tree header -->
  <rect x="0" y="34" width="280" height="312" fill="#FAFAFA"/>
  <line x1="280" y1="34" x2="280" y2="346" stroke="#D0D0D0"/>
  <rect x="0" y="34" width="968" height="24" fill="#EFEFEF"/>
  <text x="12" y="50" font-size="11" font-weight="700" fill="#555">이슈 (상위 ▸ 하위)</text>
  <!-- month headers -->
  <text x="446" y="50" font-size="10" font-weight="700" fill="#555" text-anchor="middle">2026-07</text>
  <text x="820" y="50" font-size="10" font-weight="700" fill="#555" text-anchor="middle">2026-08</text>

  <!-- week grid -->
  <g stroke="#ECECEC">
    <line x1="280" y1="58" x2="280" y2="346"/><line x1="363" y1="58" x2="363" y2="346"/>
    <line x1="446" y1="58" x2="446" y2="346"/><line x1="529" y1="58" x2="529" y2="346"/>
    <line x1="612" y1="58" x2="612" y2="346"/><line x1="695" y1="58" x2="695" y2="346"/>
    <line x1="778" y1="58" x2="778" y2="346"/><line x1="861" y1="58" x2="861" y2="346"/>
    <line x1="944" y1="58" x2="944" y2="346"/>
  </g>
  <g font-size="9" fill="#999" text-anchor="middle">
    <text x="321" y="70">7/06</text><text x="404" y="70">7/13</text><text x="487" y="70">7/20</text><text x="570" y="70">7/27</text>
    <text x="653" y="70">8/03</text><text x="736" y="70">8/10</text><text x="819" y="70">8/17</text><text x="902" y="70">8/24</text>
  </g>

  <!-- project row -->
  <text x="10" y="92" font-size="11" font-weight="700" fill="#2A2A2A">📁 Pixel Dungeon</text>

  <!-- E2 parent -->
  <text x="20" y="114" font-size="10" font-weight="700" fill="#2A2A2A">▾ #100 E2 코어 플레이</text>
  <rect x="280" y="108" width="249" height="6" fill="#888"/>
  <path d="M280 114 l4 6 l-8 0 z" fill="#888"/><path d="M529 114 l4 6 l-8 0 z" fill="#888"/>

  <!-- #1 US-01 60% -->
  <text x="34" y="136" font-size="10" fill="#444">#1 US-01 플레이어 이동</text>
  <rect x="280" y="130" width="83" height="11" rx="2" fill="#AFC8E6"/>
  <rect x="280" y="130" width="50" height="11" rx="2" fill="#3B6EA5"/>
  <text x="368" y="139" font-size="9" fill="#3B6EA5">60%</text>

  <!-- #2 US-02 30% -->
  <text x="34" y="162" font-size="10" fill="#444">#2 US-02 공격 입력</text>
  <rect x="280" y="156" width="166" height="11" rx="2" fill="#AFC8E6"/>
  <rect x="280" y="156" width="50" height="11" rx="2" fill="#3B6EA5"/>
  <text x="451" y="165" font-size="9" fill="#3B6EA5">30%</text>

  <!-- #4 US-04 0% -->
  <text x="34" y="188" font-size="10" fill="#444">#4 US-04 턴제 전투(HP)</text>
  <rect x="363" y="182" width="83" height="11" rx="2" fill="#AFC8E6"/>
  <text x="451" y="191" font-size="9" fill="#999">0%</text>

  <!-- E3 parent -->
  <text x="20" y="214" font-size="10" font-weight="700" fill="#2A2A2A">▾ #200 E3 던전·콘텐츠</text>
  <rect x="446" y="208" width="249" height="6" fill="#888"/>
  <path d="M446 214 l4 6 l-8 0 z" fill="#888"/><path d="M695 214 l4 6 l-8 0 z" fill="#888"/>

  <!-- #5 US-05 -->
  <text x="34" y="236" font-size="10" fill="#444">#5 US-05 던전 생성</text>
  <rect x="446" y="230" width="166" height="11" rx="2" fill="#AFC8E6"/>
  <text x="617" y="239" font-size="9" fill="#999">0%</text>

  <!-- #6 US-06 -->
  <text x="34" y="262" font-size="10" fill="#444">#6 US-06 적 추적 AI</text>
  <rect x="529" y="256" width="83" height="11" rx="2" fill="#AFC8E6"/>
  <text x="617" y="265" font-size="9" fill="#999">0%</text>

  <!-- versions (milestones) -->
  <line x1="446" y1="58" x2="446" y2="320" stroke="#C0392B" stroke-width="1.5" stroke-dasharray="4,3"/>
  <line x1="612" y1="58" x2="612" y2="320" stroke="#C0392B" stroke-width="1.5" stroke-dasharray="4,3"/>
  <path d="M446 300 l0 14 l16 -7 z" fill="#C0392B"/><text x="450" y="312" font-size="8" fill="#fff" transform="translate(2,0)"></text>
  <path d="M612 300 l0 14 l16 -7 z" fill="#C0392B"/>
  <text x="446" y="332" font-size="9" fill="#C0392B" text-anchor="middle">▼ v.M1 (7/17)</text>
  <text x="612" y="332" font-size="9" fill="#C0392B" text-anchor="middle">▼ v.M2 (7/31)</text>

  <text x="12" y="338" font-size="9" fill="#999">막대=이슈 기간 · 진한색=진행률(%done) · 회색 브래킷=상위이슈 · 빨강선=버전(마일스톤)</text>
</svg>
